<svg width="67" height="23" viewBox="0 0 67 23" fill="none" xmlns="http://www.w3.org/2000/svg">
<path d="M14.9459 3.70499V5.29664C14.9459 5.42407 14.8425 5.52746 14.7151 5.52746H1.51304C1.38561 5.52746 1.28223 5.42407 1.28223 5.29664V2.15421C1.28223 2.02679 1.38561 1.9234 1.51304 1.9234H13.0649C13.1258 1.9234 13.1851 1.94744 13.2284 1.99072L14.9443 3.70659L14.9459 3.70499Z" fill="white"/>
<path d="M14.8392 9.10345H5.08253C5.02454 9.10345 4.97754 9.15046 4.97754 9.20844V12.6033C4.97754 12.6613 5.02454 12.7083 5.08253 12.7083H14.8392C14.8972 12.7083 14.9442 12.6613 14.9442 12.6033V9.20844C14.9442 9.15046 14.8972 9.10345 14.8392 9.10345Z" fill="white"/>
<path d="M45.7101 1.9234H34.1566C34.0292 1.9234 33.9258 2.02679 33.9258 2.15421V12.4767C33.9258 12.6041 34.0292 12.7075 34.1566 12.7075H47.3586C47.4861 12.7075 47.5895 12.6041 47.5895 12.4767V3.80277C47.5895 3.74186 47.5654 3.68255 47.5221 3.63927L45.8736 1.99072C45.8303 1.94744 45.7718 1.9234 45.7101 1.9234ZM43.7546 9.10346H37.7631C37.6356 9.10346 37.5322 9.00008 37.5322 8.87265V5.75827C37.5322 5.63084 37.6356 5.52746 37.7631 5.52746H43.7546C43.882 5.52746 43.9854 5.63084 43.9854 5.75827V8.87265C43.9854 9.00008 43.882 9.10346 43.7546 9.10346Z" fill="white"/>
<path d="M47.5888 16.5143V18.0082C47.5888 18.0691 47.5648 18.1284 47.5215 18.1717L45.873 19.8202C45.8297 19.8635 45.7712 19.8876 45.7095 19.8876H34.1576C34.0301 19.8876 33.9268 19.7842 33.9268 19.6568V16.5143C33.9268 16.3869 34.0301 16.2835 34.1576 16.2835H47.3572C47.4846 16.2835 47.588 16.3869 47.588 16.5143H47.5888Z" fill="white"/>
<path d="M19.5561 19.8876H31.1096C31.237 19.8876 31.3404 19.7842 31.3404 19.6568V9.33427C31.3404 9.20684 31.237 9.10345 31.1096 9.10345H17.9076C17.7801 9.10345 17.6768 9.20684 17.6768 9.33427V18.0082C17.6768 18.0691 17.7008 18.1284 17.7441 18.1717L19.3926 19.8202C19.4359 19.8635 19.4944 19.8876 19.5561 19.8876ZM21.5116 12.7075H27.5032C27.6306 12.7075 27.734 12.8109 27.734 12.9383V16.0527C27.734 16.1801 27.6306 16.2835 27.5032 16.2835H21.5116C21.3842 16.2835 21.2808 16.1801 21.2808 16.0527V12.9383C21.2808 12.8109 21.3842 12.7075 21.5116 12.7075Z" fill="white"/>
<path d="M17.6768 5.29664V3.80277C17.6768 3.74186 17.7008 3.68255 17.7441 3.63927L19.3926 1.99072C19.4359 1.94744 19.4944 1.9234 19.5561 1.9234H31.108C31.2354 1.9234 31.3388 2.02679 31.3388 2.15421V5.29664C31.3388 5.42407 31.2354 5.52746 31.108 5.52746H17.9084C17.7809 5.52746 17.6776 5.42407 17.6776 5.29664H17.6768Z" fill="white"/>
<path d="M65.5597 19.8876H61.8154C61.7369 19.8876 61.664 19.8475 61.6215 19.7818L58.0166 14.2086L55.8712 10.8899L50.302 2.27924C50.2026 2.12536 50.3132 1.9234 50.496 1.9234H54.2387C54.3172 1.9234 54.3901 1.96347 54.4326 2.02919L58.0182 7.57272L60.1653 10.8915L65.7545 19.5325C65.8539 19.6864 65.7433 19.8884 65.5605 19.8884L65.5597 19.8876Z" fill="url(#paint0_linear_22586_4594)"/>
<path d="M14.7151 16.2835C14.8425 16.2835 14.9459 16.3869 14.9459 16.5143V18.106L14.9443 18.1044L13.2284 19.8202C13.1851 19.8635 13.1266 19.8876 13.0649 19.8876H1.51304C1.38561 19.8876 1.28223 19.7842 1.28223 19.6568V16.5143C1.28223 16.3869 1.38561 16.2835 1.51304 16.2835H14.7151Z" fill="white"/>
<path d="M55.7859 17.6596L54.4131 19.7818C54.3706 19.8475 54.2977 19.8876 54.2191 19.8876H50.4764C50.2937 19.8876 50.1831 19.6848 50.2825 19.5318L53.5259 14.5172C53.6164 14.3769 53.8224 14.3769 53.913 14.5172L55.7851 17.4088C55.8348 17.4849 55.8348 17.5835 55.7851 17.6596H55.7859Z" fill="url(#paint1_linear_22586_4594)"/>
<path d="M60.2503 4.15139L61.6232 2.02919C61.6657 1.96347 61.7386 1.9234 61.8171 1.9234H65.5598C65.7426 1.9234 65.8532 2.12616 65.7538 2.27924L62.5104 7.29382C62.4198 7.43407 62.2139 7.43407 62.1233 7.29382L60.2511 4.40224C60.2014 4.3261 60.2014 4.22753 60.2511 4.15139H60.2503Z" fill="url(#paint2_linear_22586_4594)"/>
<defs>
<linearGradient id="paint0_linear_22586_4594" x1="53.2809" y1="3.931" x2="62.0158" y2="16.7676" gradientUnits="userSpaceOnUse">
<stop offset="0.17" stop-color="#21BF7F"/>
<stop offset="0.93" stop-color="#115DCB"/>
</linearGradient>
<linearGradient id="paint1_linear_22586_4594" x1="51.1472" y1="21.5345" x2="54.8627" y2="15.7482" gradientUnits="userSpaceOnUse">
<stop offset="0.17" stop-color="#21BF7F"/>
<stop offset="0.93" stop-color="#115DCB"/>
</linearGradient>
<linearGradient id="paint2_linear_22586_4594" x1="63.6661" y1="2.60061" x2="56.8643" y2="11.3651" gradientUnits="userSpaceOnUse">
<stop offset="0.17" stop-color="#21BF7F"/>
<stop offset="0.8" stop-color="#115DCB"/>
</linearGradient>
</defs>
</svg>
