<svg width="36" height="33" viewBox="0 0 36 33" fill="none" xmlns="http://www.w3.org/2000/svg">
<g filter="url(#filter0_f_302_13923)">
<path d="M24.7743 21.8977C29.5815 16.673 29.5236 15.2675 24.3035 10.4561C19.0834 5.64465 14.1785 2.47594 9.37133 7.70068C4.56419 12.9254 4.89897 21.0613 10.1191 25.8727C15.3392 30.6841 19.9672 27.1225 24.7743 21.8977Z" fill="url(#paint0_linear_302_13923)"/>
</g>
<g filter="url(#filter1_f_302_13923)">
<path d="M6.14877 11.2034C1.34163 16.4282 1.39946 17.8337 6.61957 22.6451C11.8397 27.4565 16.7446 30.6252 21.5518 25.4005C26.3589 20.1757 26.0241 12.0398 20.804 7.22843C15.5839 2.41703 10.9559 5.9787 6.14877 11.2034Z" fill="url(#paint1_linear_302_13923)"/>
</g>
<g filter="url(#filter2_f_302_13923)">
<path d="M29.2423 25.4033C34.2178 19.9955 33.4879 11.9912 28.0849 7.01127C22.682 2.0313 14.6518 1.96145 9.67628 7.36924C4.70072 12.777 5.04723 21.198 10.4502 26.1779C15.8532 31.1579 24.2667 30.8111 29.2423 25.4033Z" fill="white"/>
</g>
<g style="mix-blend-mode:color-dodge" filter="url(#filter3_f_302_13923)">
<path d="M29.0094 22.7299C34.661 16.5873 34.593 14.9348 28.4559 9.27818C22.3187 3.62153 16.5521 -0.103855 10.9004 6.03874C5.24879 12.1813 5.64238 21.7465 11.7795 27.4032C17.9167 33.0598 23.3577 28.8725 29.0094 22.7299Z" fill="#93B9FF"/>
</g>
<ellipse cx="12.4554" cy="12.4563" rx="12.4554" ry="12.4563" transform="matrix(1 -1.38685e-08 -0.000883839 -1 7.01538 28.843)" fill="#141416"/>
<path d="M21.5698 16.5086L17.0652 16.5086" stroke="white" stroke-width="0.582156" stroke-linecap="round"/>
<path d="M18.5667 18.1993L17.0651 16.5086L18.5667 14.8179" stroke="white" stroke-width="0.582156" stroke-linecap="round"/>
<defs>
<filter id="filter0_f_302_13923" x="3.31284" y="2.34468" width="27.6502" height="28.4583" filterUnits="userSpaceOnUse" color-interpolation-filters="sRGB">
<feFlood flood-opacity="0" result="BackgroundImageFix"/>
<feBlend mode="normal" in="SourceGraphic" in2="BackgroundImageFix" result="shape"/>
<feGaussianBlur stdDeviation="1.33064" result="effect1_foregroundBlur_302_13923"/>
</filter>
<filter id="filter1_f_302_13923" x="-0.0399477" y="2.29817" width="27.6502" height="28.4583" filterUnits="userSpaceOnUse" color-interpolation-filters="sRGB">
<feFlood flood-opacity="0" result="BackgroundImageFix"/>
<feBlend mode="normal" in="SourceGraphic" in2="BackgroundImageFix" result="shape"/>
<feGaussianBlur stdDeviation="1.33064" result="effect1_foregroundBlur_302_13923"/>
</filter>
<filter id="filter2_f_302_13923" x="3.49863" y="0.632812" width="31.7503" height="31.7258" filterUnits="userSpaceOnUse" color-interpolation-filters="sRGB">
<feFlood flood-opacity="0" result="BackgroundImageFix"/>
<feBlend mode="normal" in="SourceGraphic" in2="BackgroundImageFix" result="shape"/>
<feGaussianBlur stdDeviation="1.33064" result="effect1_foregroundBlur_302_13923"/>
</filter>
<filter id="filter3_f_302_13923" x="3.35787" y="-0.677745" width="33.347" height="34.2969" filterUnits="userSpaceOnUse" color-interpolation-filters="sRGB">
<feFlood flood-opacity="0" result="BackgroundImageFix"/>
<feBlend mode="normal" in="SourceGraphic" in2="BackgroundImageFix" result="shape"/>
<feGaussianBlur stdDeviation="1.77419" result="effect1_foregroundBlur_302_13923"/>
</filter>
<linearGradient id="paint0_linear_302_13923" x1="0.667236" y1="17.1609" x2="16.7312" y2="31.3028" gradientUnits="userSpaceOnUse">
<stop stop-color="#70A2FF"/>
<stop offset="0.21875" stop-color="#72F6D1"/>
<stop offset="0.479167" stop-color="#76E268"/>
<stop offset="0.723958" stop-color="#FFD505"/>
<stop offset="1" stop-color="#F76E64"/>
</linearGradient>
<linearGradient id="paint1_linear_302_13923" x1="23.1636" y1="23.6486" x2="7.7481" y2="9.46517" gradientUnits="userSpaceOnUse">
<stop stop-color="#21BF7F"/>
<stop offset="1" stop-color="#115DCB"/>
</linearGradient>
</defs>
</svg>
