<svg width="20" height="20" viewBox="0 0 20 20" fill="none" xmlns="http://www.w3.org/2000/svg">
<path d="M14.166 10.0001C14.166 10.5473 14.0582 11.0891 13.8488 11.5946C13.6395 12.1001 13.3325 12.5594 12.9456 12.9464C12.5587 13.3333 12.0994 13.6402 11.5939 13.8496C11.0883 14.059 10.5465 14.1667 9.99935 14.1667C9.45217 14.1667 8.91036 14.059 8.40483 13.8496C7.89931 13.6402 7.43998 13.3333 7.05307 12.9464C6.66616 12.5594 6.35925 12.1001 6.14985 11.5946C5.94046 11.0891 5.83268 10.5473 5.83268 10.0001M18.3327 10.0001C18.3327 14.6025 14.6017 18.3334 9.99935 18.3334C5.39698 18.3334 1.66602 14.6025 1.66602 10.0001C1.66602 5.39771 5.39698 1.66675 9.99935 1.66675C14.6017 1.66675 18.3327 5.39771 18.3327 10.0001Z" stroke="#A0A4BB" stroke-width="1.24" stroke-linecap="round"/>
</svg>
